<svg width="24" height="24" viewBox="0 0 24 24" fill="none" xmlns="http://www.w3.org/2000/svg">
<path d="M1.49988 1.63305C-0.386121 3.59205 -0.000121169 5.67305 -0.000121169 11.995C-0.000121169 17.245 -0.916121 22.508 3.87788 23.747C5.37488 24.132 18.6389 24.132 20.1339 23.745C22.1299 23.23 23.7539 21.611 23.9759 18.788C24.0069 18.394 24.0069 5.60305 23.9749 5.20105C23.7389 2.19405 21.8879 0.461046 19.4489 0.110046C18.8899 0.0290464 18.7779 0.00504639 15.9099 4.6391e-05C5.73688 0.00504639 3.50688 -0.447954 1.49988 1.63305Z" fill="url(#paint0_linear_14_115)"/>
<path d="M11.9979 3.13905C8.36688 3.13905 4.91888 2.81605 3.60188 6.19605C3.05788 7.59205 3.13688 9.40505 3.13688 12.001C3.13688 14.279 3.06388 16.42 3.60188 17.805C4.91588 21.187 8.39188 20.863 11.9959 20.863C15.4729 20.863 19.0579 21.225 20.3909 17.805C20.9359 16.395 20.8559 14.609 20.8559 12.001C20.8559 8.53905 21.0469 6.30405 19.3679 4.62605C17.6679 2.92605 15.3689 3.13905 11.9939 3.13905H11.9979ZM11.2039 4.73605C18.7779 4.72405 19.7419 3.88205 19.2099 15.579C19.0209 19.716 15.8709 19.262 11.9989 19.262C4.93888 19.262 4.73588 19.06 4.73588 11.997C4.73588 4.85205 5.29588 4.74005 11.2039 4.73405V4.73605ZM16.7279 6.20705C16.446 6.20705 16.1756 6.31904 15.9762 6.51839C15.7769 6.71774 15.6649 6.98812 15.6649 7.27005C15.6649 7.55197 15.7769 7.82235 15.9762 8.0217C16.1756 8.22105 16.446 8.33305 16.7279 8.33305C17.0098 8.33305 17.2802 8.22105 17.4795 8.0217C17.6789 7.82235 17.7909 7.55197 17.7909 7.27005C17.7909 6.98812 17.6789 6.71774 17.4795 6.51839C17.2802 6.31904 17.0098 6.20705 16.7279 6.20705ZM11.9979 7.45005C11.4003 7.45011 10.8086 7.56788 10.2565 7.79662C9.70445 8.02537 9.20284 8.36061 8.78034 8.78321C7.92705 9.63669 7.44775 10.7942 7.44788 12.001C7.44801 13.2079 7.92757 14.3653 8.78104 15.2186C9.63452 16.0719 10.792 16.5512 11.9989 16.551C13.2057 16.5509 14.3631 16.0714 15.2164 15.2179C16.0697 14.3644 16.549 13.2069 16.5489 12C16.5487 10.7932 16.0692 9.63579 15.2157 8.7825C14.3622 7.92921 13.2047 7.44991 11.9979 7.45005ZM11.9979 9.04705C15.9029 9.04705 15.9079 14.955 11.9979 14.955C8.09388 14.955 8.08788 9.04705 11.9979 9.04705Z" fill="white"/>
<defs>
<linearGradient id="paint0_linear_14_115" x1="1.5459" y1="22.4671" x2="23.8514" y2="3.16202" gradientUnits="userSpaceOnUse">
<stop stop-color="#FFDD55"/>
<stop offset="0.5" stop-color="#FF543E"/>
<stop offset="1" stop-color="#C837AB"/>
</linearGradient>
</defs>
</svg>
