<svg width="24" height="24" viewBox="0 0 24 24" fill="none" xmlns="http://www.w3.org/2000/svg">
<path fill-rule="evenodd" clip-rule="evenodd" d="M17.9999 24H5.99988C4.40858 24 2.88246 23.3679 1.75724 22.2426C0.632019 21.1174 -0.00012207 19.5913 -0.00012207 18V6C-0.00012207 4.4087 0.632019 2.88258 1.75724 1.75736C2.88246 0.632141 4.40858 0 5.99988 0L17.9999 0C19.5912 0 21.1173 0.632141 22.2425 1.75736C23.3677 2.88258 23.9999 4.4087 23.9999 6V18C23.9999 19.5913 23.3677 21.1174 22.2425 22.2426C21.1173 23.3679 19.5912 24 17.9999 24Z" fill="#2D0F1E"/>
<path fill-rule="evenodd" clip-rule="evenodd" d="M11.2499 6.75H17.9999C18.8658 6.75109 19.699 6.41929 20.3272 5.82325C20.9554 5.2272 21.3304 4.41252 21.3747 3.54772C21.419 2.68292 21.1292 1.83417 20.5653 1.17704C20.0013 0.519908 19.2064 0.104682 18.3449 0.01725C18.2301 0.010875 18.1165 0 17.9999 0H5.99988C4.40858 0 2.88246 0.632141 1.75724 1.75736C0.632019 2.88258 -0.00012207 4.4087 -0.00012207 6L-0.00012207 18C-0.00012207 15.0163 1.18514 12.1548 3.29493 10.045C5.40471 7.93526 8.26619 6.75 11.2499 6.75Z" fill="#501432"/>
<path fill-rule="evenodd" clip-rule="evenodd" d="M17.9999 12C16.8132 12 15.6532 12.3519 14.6665 13.0112C13.6798 13.6705 12.9107 14.6075 12.4566 15.7039C12.0025 16.8003 11.8837 18.0067 12.1152 19.1705C12.3467 20.3344 12.9181 21.4035 13.7572 22.2426C14.5964 23.0818 15.6654 23.6532 16.8293 23.8847C17.9932 24.1162 19.1996 23.9974 20.296 23.5433C21.3923 23.0892 22.3294 22.3201 22.9887 21.3334C23.648 20.3467 23.9999 19.1867 23.9999 18V6C23.9999 7.5913 23.3677 9.11742 22.2425 10.2426C21.1173 11.3679 19.5912 12 17.9999 12Z" fill="black"/>
<path fill-rule="evenodd" clip-rule="evenodd" d="M12.7499 5.25C12.7499 5.05109 12.8289 4.86032 12.9695 4.71967C13.1102 4.57902 13.301 4.5 13.4999 4.5H15.0858C15.2592 4.50004 15.4273 4.56018 15.5613 4.67019C15.6954 4.7802 15.7872 4.93329 15.8211 5.10338C15.9569 5.77991 16.3229 6.38848 16.8569 6.82546C17.3909 7.26244 18.0599 7.50082 18.7499 7.5C18.9488 7.5 19.1396 7.57902 19.2802 7.71967C19.4209 7.86032 19.4999 8.05109 19.4999 8.25V9.75C19.4999 9.94891 19.4209 10.1397 19.2802 10.2803C19.1396 10.421 18.9488 10.5 18.7499 10.5C17.6965 10.5015 16.6614 10.2243 15.7499 9.69637V15.75C15.7499 16.7884 15.442 17.8034 14.8651 18.6667C14.2882 19.5301 13.4683 20.203 12.509 20.6004C11.5497 20.9977 10.4941 21.1017 9.47565 20.8991C8.45725 20.6966 7.52179 20.1965 6.78757 19.4623C6.05334 18.7281 5.55333 17.7926 5.35075 16.7742C5.14818 15.7558 5.25215 14.7002 5.64951 13.7409C6.04687 12.7816 6.71978 11.9617 7.58313 11.3848C8.44649 10.8079 9.46152 10.5 10.4999 10.5C10.6988 10.5 10.8896 10.579 11.0302 10.7197C11.1709 10.8603 11.2499 11.0511 11.2499 11.25V12.75C11.2499 12.9489 11.1709 13.1397 11.0302 13.2803C10.8896 13.421 10.6988 13.5 10.4999 13.5C10.0549 13.5 9.61985 13.632 9.24984 13.8792C8.87983 14.1264 8.59144 14.4778 8.42115 14.889C8.25085 15.3001 8.20629 15.7525 8.29311 16.189C8.37993 16.6254 8.59422 17.0263 8.90889 17.341C9.22355 17.6557 9.62447 17.8699 10.0609 17.9568C10.4974 18.0436 10.9498 17.999 11.3609 17.8287C11.772 17.6584 12.1235 17.37 12.3707 17C12.6179 16.63 12.7499 16.195 12.7499 15.75V5.25Z" fill="#FE2C55"/>
<path fill-rule="evenodd" clip-rule="evenodd" d="M11.9999 4.5C11.9999 4.30109 12.0789 4.11032 12.2195 3.96967C12.3602 3.82902 12.551 3.75 12.7499 3.75H14.3358C14.5092 3.75004 14.6773 3.81018 14.8113 3.92019C14.9454 4.0302 15.0372 4.18329 15.0711 4.35338C15.2069 5.02991 15.5729 5.63848 16.1069 6.07546C16.6409 6.51244 17.3099 6.75082 17.9999 6.75C18.1988 6.75 18.3896 6.82902 18.5302 6.96967C18.6709 7.11032 18.7499 7.30109 18.7499 7.5V9C18.7499 9.19891 18.6709 9.38968 18.5302 9.53033C18.3896 9.67098 18.1988 9.75 17.9999 9.75C16.9465 9.75154 15.9114 9.47428 14.9999 8.94637V15C14.9999 16.0384 14.692 17.0534 14.1151 17.9167C13.5382 18.7801 12.7183 19.453 11.759 19.8504C10.7997 20.2477 9.74405 20.3517 8.72565 20.1491C7.70725 19.9466 6.77179 19.4465 6.03757 18.7123C5.30334 17.9781 4.80333 17.0426 4.60075 16.0242C4.39818 15.0058 4.50215 13.9502 4.89951 12.9909C5.29687 12.0316 5.96978 11.2117 6.83313 10.6348C7.69649 10.0579 8.71152 9.75 9.74988 9.75C9.94879 9.75 10.1396 9.82902 10.2802 9.96967C10.4209 10.1103 10.4999 10.3011 10.4999 10.5V12C10.4999 12.1989 10.4209 12.3897 10.2802 12.5303C10.1396 12.671 9.94879 12.75 9.74988 12.75C9.30487 12.75 8.86985 12.882 8.49984 13.1292C8.12983 13.3764 7.84144 13.7278 7.67115 14.139C7.50085 14.5501 7.45629 15.0025 7.54311 15.439C7.62993 15.8754 7.84422 16.2763 8.15889 16.591C8.47355 16.9057 8.87447 17.1199 9.31092 17.2068C9.74738 17.2936 10.1998 17.249 10.6109 17.0787C11.022 16.9084 11.3734 16.62 11.6207 16.25C11.8679 15.88 11.9999 15.445 11.9999 15V4.5Z" fill="#25F4EE"/>
<path fill-rule="evenodd" clip-rule="evenodd" d="M8.57838 16.9215C8.83375 17.3407 9.21919 17.6648 9.67593 17.8446C10.1327 18.0243 10.6357 18.0498 11.1082 17.9171C11.5808 17.7844 11.997 17.5008 12.2934 17.1095C12.5898 16.7183 12.7501 16.2408 12.7499 15.75V5.25C12.7499 5.05109 12.8289 4.86032 12.9695 4.71967C13.1102 4.57902 13.301 4.5 13.4999 4.5H15.0858L15.1041 4.50038C15.2805 5.19743 15.7031 5.8071 16.294 6.21675C16.5691 6.61326 16.9363 6.93715 17.364 7.16065C17.7917 7.38415 18.2673 7.50059 18.7499 7.5V9C18.7499 9.19891 18.6709 9.38968 18.5302 9.53033C18.3896 9.67098 18.1988 9.75 17.9999 9.75C16.9465 9.75154 15.9114 9.47428 14.9999 8.94637V15C14.9999 15.9932 14.7182 16.966 14.1875 17.8054C13.6568 18.6449 12.8989 19.3167 12.0017 19.7426C11.1045 20.1686 10.1049 20.3314 9.11897 20.212C8.133 20.0927 7.20112 19.6961 6.4315 19.0684C5.80375 18.2988 5.40718 17.3669 5.28783 16.3809C5.16848 15.3949 5.33124 14.3953 5.75723 13.4982C6.18322 12.601 6.85495 11.8431 7.69443 11.3124C8.53392 10.7817 9.50671 10.5 10.4999 10.5V12C10.4999 12.1989 10.4209 12.3897 10.2802 12.5303C10.1396 12.671 9.94879 12.75 9.74988 12.75C9.25904 12.7498 8.7816 12.9101 8.39035 13.2065C7.9991 13.5029 7.7155 13.9191 7.58279 14.3917C7.45008 14.8642 7.47554 15.3672 7.65529 15.8239C7.83503 16.2807 8.1592 16.6661 8.57838 16.9215Z" fill="white"/>
</svg>
